<mxfile host="app.diagrams.net" modified="2023-10-24T13:04:24.341Z" agent="Mozilla/5.0 (X11; Ubuntu; Linux x86_64; rv:109.0) Gecko/20100101 Firefox/118.0" etag="9xNm8doY9m4UU4prLfdv" version="22.0.6" type="device">
  <diagram id="C5RBs43oDa-KdzZeNtuy" name="Page-1">
    <mxGraphModel dx="4677" dy="2565" grid="1" gridSize="10" guides="1" tooltips="1" connect="1" arrows="1" fold="1" page="1" pageScale="1" pageWidth="1169" pageHeight="827" math="0" shadow="0">
      <root>
        <mxCell id="WIyWlLk6GJQsqaUBKTNV-0" />
        <mxCell id="WIyWlLk6GJQsqaUBKTNV-1" parent="WIyWlLk6GJQsqaUBKTNV-0" />
        <mxCell id="zkfFHV4jXpPFQw0GAbJ--0" value="LinkablePart" style="swimlane;fontStyle=2;align=center;verticalAlign=top;childLayout=stackLayout;horizontal=1;startSize=26;horizontalStack=0;resizeParent=1;resizeLast=0;collapsible=1;marginBottom=0;rounded=0;shadow=0;strokeWidth=1;" parent="WIyWlLk6GJQsqaUBKTNV-1" vertex="1">
          <mxGeometry x="-290" y="447" width="160" height="70" as="geometry">
            <mxRectangle x="230" y="140" width="160" height="26" as="alternateBounds" />
          </mxGeometry>
        </mxCell>
        <mxCell id="qJN3Jl12TVzpHm3YRdqT-5" value="" style="line;html=1;strokeWidth=1;align=left;verticalAlign=middle;spacingTop=-1;spacingLeft=3;spacingRight=3;rotatable=0;labelPosition=right;points=[];portConstraint=eastwest;" parent="zkfFHV4jXpPFQw0GAbJ--0" vertex="1">
          <mxGeometry y="26" width="160" height="8" as="geometry" />
        </mxCell>
        <mxCell id="zkfFHV4jXpPFQw0GAbJ--5" value="execute(float p_pression)" style="text;align=left;verticalAlign=top;spacingLeft=4;spacingRight=4;overflow=hidden;rotatable=0;points=[[0,0.5],[1,0.5]];portConstraint=eastwest;fontStyle=2" parent="zkfFHV4jXpPFQw0GAbJ--0" vertex="1">
          <mxGeometry y="34" width="160" height="26" as="geometry" />
        </mxCell>
        <mxCell id="zkfFHV4jXpPFQw0GAbJ--6" value="Wheel" style="swimlane;fontStyle=0;align=center;verticalAlign=top;childLayout=stackLayout;horizontal=1;startSize=26;horizontalStack=0;resizeParent=1;resizeLast=0;collapsible=1;marginBottom=0;rounded=0;shadow=0;strokeWidth=1;" parent="WIyWlLk6GJQsqaUBKTNV-1" vertex="1">
          <mxGeometry x="-40" y="31" width="160" height="80" as="geometry">
            <mxRectangle x="130" y="380" width="160" height="26" as="alternateBounds" />
          </mxGeometry>
        </mxCell>
        <mxCell id="qJN3Jl12TVzpHm3YRdqT-6" value="" style="line;html=1;strokeWidth=1;align=left;verticalAlign=middle;spacingTop=-1;spacingLeft=3;spacingRight=3;rotatable=0;labelPosition=right;points=[];portConstraint=eastwest;" parent="zkfFHV4jXpPFQw0GAbJ--6" vertex="1">
          <mxGeometry y="26" width="160" height="8" as="geometry" />
        </mxCell>
        <mxCell id="zkfFHV4jXpPFQw0GAbJ--10" value="executeRotation&#xa;(float p_force)" style="text;align=left;verticalAlign=top;spacingLeft=4;spacingRight=4;overflow=hidden;rotatable=0;points=[[0,0.5],[1,0.5]];portConstraint=eastwest;fontStyle=0" parent="zkfFHV4jXpPFQw0GAbJ--6" vertex="1">
          <mxGeometry y="34" width="160" height="44" as="geometry" />
        </mxCell>
        <mxCell id="zkfFHV4jXpPFQw0GAbJ--13" value="Gear" style="swimlane;fontStyle=0;align=center;verticalAlign=top;childLayout=stackLayout;horizontal=1;startSize=26;horizontalStack=0;resizeParent=1;resizeLast=0;collapsible=1;marginBottom=0;rounded=0;shadow=0;strokeWidth=1;" parent="WIyWlLk6GJQsqaUBKTNV-1" vertex="1">
          <mxGeometry x="600" y="380" width="160" height="60" as="geometry">
            <mxRectangle x="340" y="380" width="170" height="26" as="alternateBounds" />
          </mxGeometry>
        </mxCell>
        <mxCell id="qJN3Jl12TVzpHm3YRdqT-8" value="int demultiplier" style="text;align=left;verticalAlign=top;spacingLeft=4;spacingRight=4;overflow=hidden;rotatable=0;points=[[0,0.5],[1,0.5]];portConstraint=eastwest;" parent="zkfFHV4jXpPFQw0GAbJ--13" vertex="1">
          <mxGeometry y="26" width="160" height="26" as="geometry" />
        </mxCell>
        <mxCell id="qJN3Jl12TVzpHm3YRdqT-7" value="" style="line;html=1;strokeWidth=1;align=left;verticalAlign=middle;spacingTop=-1;spacingLeft=3;spacingRight=3;rotatable=0;labelPosition=right;points=[];portConstraint=eastwest;" parent="zkfFHV4jXpPFQw0GAbJ--13" vertex="1">
          <mxGeometry y="52" width="160" height="8" as="geometry" />
        </mxCell>
        <mxCell id="qJN3Jl12TVzpHm3YRdqT-9" value="GearLever" style="swimlane;fontStyle=0;align=center;verticalAlign=top;childLayout=stackLayout;horizontal=1;startSize=26;horizontalStack=0;resizeParent=1;resizeLast=0;collapsible=1;marginBottom=0;rounded=0;shadow=0;strokeWidth=1;" parent="WIyWlLk6GJQsqaUBKTNV-1" vertex="1">
          <mxGeometry x="480" y="287" width="160" height="60" as="geometry">
            <mxRectangle x="340" y="380" width="170" height="26" as="alternateBounds" />
          </mxGeometry>
        </mxCell>
        <mxCell id="qJN3Jl12TVzpHm3YRdqT-11" value="" style="line;html=1;strokeWidth=1;align=left;verticalAlign=middle;spacingTop=-1;spacingLeft=3;spacingRight=3;rotatable=0;labelPosition=right;points=[];portConstraint=eastwest;" parent="qJN3Jl12TVzpHm3YRdqT-9" vertex="1">
          <mxGeometry y="26" width="160" height="8" as="geometry" />
        </mxCell>
        <mxCell id="qJN3Jl12TVzpHm3YRdqT-12" value="GearLever&lt;Singleton&gt;" style="swimlane;fontStyle=0;align=center;verticalAlign=top;childLayout=stackLayout;horizontal=1;startSize=26;horizontalStack=0;resizeParent=1;resizeLast=0;collapsible=1;marginBottom=0;rounded=0;shadow=0;strokeWidth=1;" parent="WIyWlLk6GJQsqaUBKTNV-1" vertex="1">
          <mxGeometry x="570" y="71" width="160" height="138" as="geometry">
            <mxRectangle x="340" y="380" width="170" height="26" as="alternateBounds" />
          </mxGeometry>
        </mxCell>
        <mxCell id="qJN3Jl12TVzpHm3YRdqT-13" value="Array&lt;Gear&gt; gear" style="text;align=left;verticalAlign=top;spacingLeft=4;spacingRight=4;overflow=hidden;rotatable=0;points=[[0,0.5],[1,0.5]];portConstraint=eastwest;" parent="qJN3Jl12TVzpHm3YRdqT-12" vertex="1">
          <mxGeometry y="26" width="160" height="26" as="geometry" />
        </mxCell>
        <mxCell id="qJN3Jl12TVzpHm3YRdqT-15" value="int level" style="text;align=left;verticalAlign=top;spacingLeft=4;spacingRight=4;overflow=hidden;rotatable=0;points=[[0,0.5],[1,0.5]];portConstraint=eastwest;" parent="qJN3Jl12TVzpHm3YRdqT-12" vertex="1">
          <mxGeometry y="52" width="160" height="26" as="geometry" />
        </mxCell>
        <mxCell id="qJN3Jl12TVzpHm3YRdqT-14" value="" style="line;html=1;strokeWidth=1;align=left;verticalAlign=middle;spacingTop=-1;spacingLeft=3;spacingRight=3;rotatable=0;labelPosition=right;points=[];portConstraint=eastwest;" parent="qJN3Jl12TVzpHm3YRdqT-12" vertex="1">
          <mxGeometry y="78" width="160" height="8" as="geometry" />
        </mxCell>
        <mxCell id="qJN3Jl12TVzpHm3YRdqT-20" value="change()" style="text;align=left;verticalAlign=top;spacingLeft=4;spacingRight=4;overflow=hidden;rotatable=0;points=[[0,0.5],[1,0.5]];portConstraint=eastwest;" parent="qJN3Jl12TVzpHm3YRdqT-12" vertex="1">
          <mxGeometry y="86" width="160" height="26" as="geometry" />
        </mxCell>
        <mxCell id="qJN3Jl12TVzpHm3YRdqT-21" value="activeGear(): Gear*" style="text;align=left;verticalAlign=top;spacingLeft=4;spacingRight=4;overflow=hidden;rotatable=0;points=[[0,0.5],[1,0.5]];portConstraint=eastwest;" parent="qJN3Jl12TVzpHm3YRdqT-12" vertex="1">
          <mxGeometry y="112" width="160" height="26" as="geometry" />
        </mxCell>
        <mxCell id="qJN3Jl12TVzpHm3YRdqT-18" value="" style="endArrow=block;endSize=16;endFill=0;html=1;rounded=0;exitX=0.5;exitY=0;exitDx=0;exitDy=0;entryX=0.313;entryY=1.038;entryDx=0;entryDy=0;edgeStyle=orthogonalEdgeStyle;entryPerimeter=0;" parent="WIyWlLk6GJQsqaUBKTNV-1" source="qJN3Jl12TVzpHm3YRdqT-9" target="qJN3Jl12TVzpHm3YRdqT-21" edge="1">
          <mxGeometry width="160" relative="1" as="geometry">
            <mxPoint x="750" y="301" as="sourcePoint" />
            <mxPoint x="720" y="311" as="targetPoint" />
          </mxGeometry>
        </mxCell>
        <mxCell id="qJN3Jl12TVzpHm3YRdqT-22" value="Transmission" style="swimlane;fontStyle=0;align=center;verticalAlign=top;childLayout=stackLayout;horizontal=1;startSize=26;horizontalStack=0;resizeParent=1;resizeLast=0;collapsible=1;marginBottom=0;rounded=0;shadow=0;strokeWidth=1;" parent="WIyWlLk6GJQsqaUBKTNV-1" vertex="1">
          <mxGeometry x="-390" y="47" width="160" height="93" as="geometry">
            <mxRectangle x="340" y="380" width="170" height="26" as="alternateBounds" />
          </mxGeometry>
        </mxCell>
        <mxCell id="qJN3Jl12TVzpHm3YRdqT-23" value="vector&lt;Wheel *&gt; wheels" style="text;align=left;verticalAlign=top;spacingLeft=4;spacingRight=4;overflow=hidden;rotatable=0;points=[[0,0.5],[1,0.5]];portConstraint=eastwest;" parent="qJN3Jl12TVzpHm3YRdqT-22" vertex="1">
          <mxGeometry y="26" width="160" height="26" as="geometry" />
        </mxCell>
        <mxCell id="qJN3Jl12TVzpHm3YRdqT-25" value="" style="line;html=1;strokeWidth=1;align=left;verticalAlign=middle;spacingTop=-1;spacingLeft=3;spacingRight=3;rotatable=0;labelPosition=right;points=[];portConstraint=eastwest;" parent="qJN3Jl12TVzpHm3YRdqT-22" vertex="1">
          <mxGeometry y="52" width="160" height="8" as="geometry" />
        </mxCell>
        <mxCell id="qJN3Jl12TVzpHm3YRdqT-26" value="activate(float p_force)" style="text;align=left;verticalAlign=top;spacingLeft=4;spacingRight=4;overflow=hidden;rotatable=0;points=[[0,0.5],[1,0.5]];portConstraint=eastwest;" parent="qJN3Jl12TVzpHm3YRdqT-22" vertex="1">
          <mxGeometry y="60" width="160" height="26" as="geometry" />
        </mxCell>
        <mxCell id="qJN3Jl12TVzpHm3YRdqT-29" value="ExplosionChamber" style="swimlane;fontStyle=0;align=center;verticalAlign=top;childLayout=stackLayout;horizontal=1;startSize=26;horizontalStack=0;resizeParent=1;resizeLast=0;collapsible=1;marginBottom=0;rounded=0;shadow=0;strokeWidth=1;" parent="WIyWlLk6GJQsqaUBKTNV-1" vertex="1">
          <mxGeometry x="-1030" y="114.5" width="180" height="93" as="geometry">
            <mxRectangle x="340" y="380" width="170" height="26" as="alternateBounds" />
          </mxGeometry>
        </mxCell>
        <mxCell id="qJN3Jl12TVzpHm3YRdqT-30" value="Crankshaft * crank" style="text;align=left;verticalAlign=top;spacingLeft=4;spacingRight=4;overflow=hidden;rotatable=0;points=[[0,0.5],[1,0.5]];portConstraint=eastwest;" parent="qJN3Jl12TVzpHm3YRdqT-29" vertex="1">
          <mxGeometry y="26" width="180" height="26" as="geometry" />
        </mxCell>
        <mxCell id="qJN3Jl12TVzpHm3YRdqT-31" value="" style="line;html=1;strokeWidth=1;align=left;verticalAlign=middle;spacingTop=-1;spacingLeft=3;spacingRight=3;rotatable=0;labelPosition=right;points=[];portConstraint=eastwest;" parent="qJN3Jl12TVzpHm3YRdqT-29" vertex="1">
          <mxGeometry y="52" width="180" height="8" as="geometry" />
        </mxCell>
        <mxCell id="qJN3Jl12TVzpHm3YRdqT-32" value="fill(float p_volume)" style="text;align=left;verticalAlign=top;spacingLeft=4;spacingRight=4;overflow=hidden;rotatable=0;points=[[0,0.5],[1,0.5]];portConstraint=eastwest;" parent="qJN3Jl12TVzpHm3YRdqT-29" vertex="1">
          <mxGeometry y="60" width="180" height="26" as="geometry" />
        </mxCell>
        <mxCell id="qJN3Jl12TVzpHm3YRdqT-33" value="Crankshaft" style="swimlane;fontStyle=0;align=center;verticalAlign=top;childLayout=stackLayout;horizontal=1;startSize=26;horizontalStack=0;resizeParent=1;resizeLast=0;collapsible=1;marginBottom=0;rounded=0;shadow=0;strokeWidth=1;" parent="WIyWlLk6GJQsqaUBKTNV-1" vertex="1">
          <mxGeometry x="-770" y="114.5" width="180" height="93" as="geometry">
            <mxRectangle x="340" y="380" width="170" height="26" as="alternateBounds" />
          </mxGeometry>
        </mxCell>
        <mxCell id="qJN3Jl12TVzpHm3YRdqT-34" value="Transmission * trm" style="text;align=left;verticalAlign=top;spacingLeft=4;spacingRight=4;overflow=hidden;rotatable=0;points=[[0,0.5],[1,0.5]];portConstraint=eastwest;" parent="qJN3Jl12TVzpHm3YRdqT-33" vertex="1">
          <mxGeometry y="26" width="180" height="26" as="geometry" />
        </mxCell>
        <mxCell id="qJN3Jl12TVzpHm3YRdqT-35" value="" style="line;html=1;strokeWidth=1;align=left;verticalAlign=middle;spacingTop=-1;spacingLeft=3;spacingRight=3;rotatable=0;labelPosition=right;points=[];portConstraint=eastwest;" parent="qJN3Jl12TVzpHm3YRdqT-33" vertex="1">
          <mxGeometry y="52" width="180" height="8" as="geometry" />
        </mxCell>
        <mxCell id="qJN3Jl12TVzpHm3YRdqT-36" value="receiveForce(float p_volume)" style="text;align=left;verticalAlign=top;spacingLeft=4;spacingRight=4;overflow=hidden;rotatable=0;points=[[0,0.5],[1,0.5]];portConstraint=eastwest;" parent="qJN3Jl12TVzpHm3YRdqT-33" vertex="1">
          <mxGeometry y="60" width="180" height="26" as="geometry" />
        </mxCell>
        <mxCell id="qJN3Jl12TVzpHm3YRdqT-38" value="BrakeController" style="swimlane;fontStyle=0;align=center;verticalAlign=top;childLayout=stackLayout;horizontal=1;startSize=26;horizontalStack=0;resizeParent=1;resizeLast=0;collapsible=1;marginBottom=0;rounded=0;shadow=0;strokeWidth=1;" parent="WIyWlLk6GJQsqaUBKTNV-1" vertex="1">
          <mxGeometry x="-210" y="167" width="180" height="93" as="geometry">
            <mxRectangle x="340" y="380" width="170" height="26" as="alternateBounds" />
          </mxGeometry>
        </mxCell>
        <mxCell id="qJN3Jl12TVzpHm3YRdqT-39" value="Array&lt;Brake&gt; brake" style="text;align=left;verticalAlign=top;spacingLeft=4;spacingRight=4;overflow=hidden;rotatable=0;points=[[0,0.5],[1,0.5]];portConstraint=eastwest;" parent="qJN3Jl12TVzpHm3YRdqT-38" vertex="1">
          <mxGeometry y="26" width="180" height="26" as="geometry" />
        </mxCell>
        <mxCell id="qJN3Jl12TVzpHm3YRdqT-40" value="" style="line;html=1;strokeWidth=1;align=left;verticalAlign=middle;spacingTop=-1;spacingLeft=3;spacingRight=3;rotatable=0;labelPosition=right;points=[];portConstraint=eastwest;" parent="qJN3Jl12TVzpHm3YRdqT-38" vertex="1">
          <mxGeometry y="52" width="180" height="8" as="geometry" />
        </mxCell>
        <mxCell id="qJN3Jl12TVzpHm3YRdqT-41" value="execute(float p_pression)" style="text;align=left;verticalAlign=top;spacingLeft=4;spacingRight=4;overflow=hidden;rotatable=0;points=[[0,0.5],[1,0.5]];portConstraint=eastwest;" parent="qJN3Jl12TVzpHm3YRdqT-38" vertex="1">
          <mxGeometry y="60" width="180" height="26" as="geometry" />
        </mxCell>
        <mxCell id="qJN3Jl12TVzpHm3YRdqT-43" value="Motor" style="swimlane;fontStyle=0;align=center;verticalAlign=top;childLayout=stackLayout;horizontal=1;startSize=26;horizontalStack=0;resizeParent=1;resizeLast=0;collapsible=1;marginBottom=0;rounded=0;shadow=0;strokeWidth=1;" parent="WIyWlLk6GJQsqaUBKTNV-1" vertex="1">
          <mxGeometry x="-880" y="-293" width="240" height="180" as="geometry">
            <mxRectangle x="340" y="380" width="170" height="26" as="alternateBounds" />
          </mxGeometry>
        </mxCell>
        <mxCell id="qJN3Jl12TVzpHm3YRdqT-44" value="Injector injector" style="text;align=left;verticalAlign=top;spacingLeft=4;spacingRight=4;overflow=hidden;rotatable=0;points=[[0,0.5],[1,0.5]];portConstraint=eastwest;" parent="qJN3Jl12TVzpHm3YRdqT-43" vertex="1">
          <mxGeometry y="26" width="240" height="26" as="geometry" />
        </mxCell>
        <mxCell id="qJN3Jl12TVzpHm3YRdqT-48" value="ExplosionChamber ec" style="text;align=left;verticalAlign=top;spacingLeft=4;spacingRight=4;overflow=hidden;rotatable=0;points=[[0,0.5],[1,0.5]];portConstraint=eastwest;" parent="qJN3Jl12TVzpHm3YRdqT-43" vertex="1">
          <mxGeometry y="52" width="240" height="26" as="geometry" />
        </mxCell>
        <mxCell id="qJN3Jl12TVzpHm3YRdqT-47" value="Crankshaft cs" style="text;align=left;verticalAlign=top;spacingLeft=4;spacingRight=4;overflow=hidden;rotatable=0;points=[[0,0.5],[1,0.5]];portConstraint=eastwest;" parent="qJN3Jl12TVzpHm3YRdqT-43" vertex="1">
          <mxGeometry y="78" width="240" height="26" as="geometry" />
        </mxCell>
        <mxCell id="qJN3Jl12TVzpHm3YRdqT-45" value="" style="line;html=1;strokeWidth=1;align=left;verticalAlign=middle;spacingTop=-1;spacingLeft=3;spacingRight=3;rotatable=0;labelPosition=right;points=[];portConstraint=eastwest;" parent="qJN3Jl12TVzpHm3YRdqT-43" vertex="1">
          <mxGeometry y="104" width="240" height="8" as="geometry" />
        </mxCell>
        <mxCell id="qJN3Jl12TVzpHm3YRdqT-46" value="connectToTransmission&#xa;(Transmission* p_transmission)" style="text;align=left;verticalAlign=top;spacingLeft=4;spacingRight=4;overflow=hidden;rotatable=0;points=[[0,0.5],[1,0.5]];portConstraint=eastwest;" parent="qJN3Jl12TVzpHm3YRdqT-43" vertex="1">
          <mxGeometry y="112" width="240" height="48" as="geometry" />
        </mxCell>
        <mxCell id="qJN3Jl12TVzpHm3YRdqT-51" value="Direction" style="swimlane;fontStyle=0;align=center;verticalAlign=top;childLayout=stackLayout;horizontal=1;startSize=26;horizontalStack=0;resizeParent=1;resizeLast=0;collapsible=1;marginBottom=0;rounded=0;shadow=0;strokeWidth=1;" parent="WIyWlLk6GJQsqaUBKTNV-1" vertex="1">
          <mxGeometry x="-40" y="-133" width="160" height="93" as="geometry">
            <mxRectangle x="340" y="380" width="170" height="26" as="alternateBounds" />
          </mxGeometry>
        </mxCell>
        <mxCell id="qJN3Jl12TVzpHm3YRdqT-52" value="vector&lt;Wheel *&gt; wheels" style="text;align=left;verticalAlign=top;spacingLeft=4;spacingRight=4;overflow=hidden;rotatable=0;points=[[0,0.5],[1,0.5]];portConstraint=eastwest;" parent="qJN3Jl12TVzpHm3YRdqT-51" vertex="1">
          <mxGeometry y="26" width="160" height="26" as="geometry" />
        </mxCell>
        <mxCell id="qJN3Jl12TVzpHm3YRdqT-53" value="" style="line;html=1;strokeWidth=1;align=left;verticalAlign=middle;spacingTop=-1;spacingLeft=3;spacingRight=3;rotatable=0;labelPosition=right;points=[];portConstraint=eastwest;" parent="qJN3Jl12TVzpHm3YRdqT-51" vertex="1">
          <mxGeometry y="52" width="160" height="8" as="geometry" />
        </mxCell>
        <mxCell id="qJN3Jl12TVzpHm3YRdqT-54" value="turn(float p_angle)" style="text;align=left;verticalAlign=top;spacingLeft=4;spacingRight=4;overflow=hidden;rotatable=0;points=[[0,0.5],[1,0.5]];portConstraint=eastwest;" parent="qJN3Jl12TVzpHm3YRdqT-51" vertex="1">
          <mxGeometry y="60" width="160" height="26" as="geometry" />
        </mxCell>
        <mxCell id="TrEjsEaidqLk8EyQajSw-0" value="Car" style="swimlane;fontStyle=0;align=center;verticalAlign=top;childLayout=stackLayout;horizontal=1;startSize=26;horizontalStack=0;resizeParent=1;resizeLast=0;collapsible=1;marginBottom=0;rounded=0;shadow=0;strokeWidth=1;" parent="WIyWlLk6GJQsqaUBKTNV-1" vertex="1">
          <mxGeometry x="-360" y="-293" width="210" height="200" as="geometry">
            <mxRectangle x="550" y="140" width="160" height="26" as="alternateBounds" />
          </mxGeometry>
        </mxCell>
        <mxCell id="TrEjsEaidqLk8EyQajSw-1" value="BrakeController breakController" style="text;align=left;verticalAlign=top;spacingLeft=4;spacingRight=4;overflow=hidden;rotatable=0;points=[[0,0.5],[1,0.5]];portConstraint=eastwest;" parent="TrEjsEaidqLk8EyQajSw-0" vertex="1">
          <mxGeometry y="26" width="210" height="26" as="geometry" />
        </mxCell>
        <mxCell id="TrEjsEaidqLk8EyQajSw-2" value="Direction direction" style="text;align=left;verticalAlign=top;spacingLeft=4;spacingRight=4;overflow=hidden;rotatable=0;points=[[0,0.5],[1,0.5]];portConstraint=eastwest;rounded=0;shadow=0;html=0;" parent="TrEjsEaidqLk8EyQajSw-0" vertex="1">
          <mxGeometry y="52" width="210" height="26" as="geometry" />
        </mxCell>
        <mxCell id="TrEjsEaidqLk8EyQajSw-3" value="Transmission transmission" style="text;align=left;verticalAlign=top;spacingLeft=4;spacingRight=4;overflow=hidden;rotatable=0;points=[[0,0.5],[1,0.5]];portConstraint=eastwest;rounded=0;shadow=0;html=0;" parent="TrEjsEaidqLk8EyQajSw-0" vertex="1">
          <mxGeometry y="78" width="210" height="26" as="geometry" />
        </mxCell>
        <mxCell id="TrEjsEaidqLk8EyQajSw-4" value="Motor motor" style="text;align=left;verticalAlign=top;spacingLeft=4;spacingRight=4;overflow=hidden;rotatable=0;points=[[0,0.5],[1,0.5]];portConstraint=eastwest;rounded=0;shadow=0;html=0;" parent="TrEjsEaidqLk8EyQajSw-0" vertex="1">
          <mxGeometry y="104" width="210" height="26" as="geometry" />
        </mxCell>
        <mxCell id="TrEjsEaidqLk8EyQajSw-9" value="Electronics electronics" style="text;align=left;verticalAlign=top;spacingLeft=4;spacingRight=4;overflow=hidden;rotatable=0;points=[[0,0.5],[1,0.5]];portConstraint=eastwest;rounded=0;shadow=0;html=0;" parent="TrEjsEaidqLk8EyQajSw-0" vertex="1">
          <mxGeometry y="130" width="210" height="26" as="geometry" />
        </mxCell>
        <mxCell id="TrEjsEaidqLk8EyQajSw-5" value="Cockpit cockpit" style="text;align=left;verticalAlign=top;spacingLeft=4;spacingRight=4;overflow=hidden;rotatable=0;points=[[0,0.5],[1,0.5]];portConstraint=eastwest;rounded=0;shadow=0;html=0;" parent="TrEjsEaidqLk8EyQajSw-0" vertex="1">
          <mxGeometry y="156" width="210" height="26" as="geometry" />
        </mxCell>
        <mxCell id="TrEjsEaidqLk8EyQajSw-6" value="" style="line;html=1;strokeWidth=1;align=left;verticalAlign=middle;spacingTop=-1;spacingLeft=3;spacingRight=3;rotatable=0;labelPosition=right;points=[];portConstraint=eastwest;" parent="TrEjsEaidqLk8EyQajSw-0" vertex="1">
          <mxGeometry y="182" width="210" height="8" as="geometry" />
        </mxCell>
        <mxCell id="TrEjsEaidqLk8EyQajSw-36" value="" style="edgeStyle=orthogonalEdgeStyle;rounded=0;orthogonalLoop=1;jettySize=auto;html=1;endArrow=diamondThin;endFill=1;entryX=0.5;entryY=0;entryDx=0;entryDy=0;endSize=24;" parent="WIyWlLk6GJQsqaUBKTNV-1" source="TrEjsEaidqLk8EyQajSw-10" target="TrEjsEaidqLk8EyQajSw-0" edge="1">
          <mxGeometry relative="1" as="geometry" />
        </mxCell>
        <mxCell id="TrEjsEaidqLk8EyQajSw-10" value="Electronics" style="swimlane;fontStyle=0;align=center;verticalAlign=top;childLayout=stackLayout;horizontal=1;startSize=26;horizontalStack=0;resizeParent=1;resizeLast=0;collapsible=1;marginBottom=0;rounded=0;shadow=0;strokeWidth=1;" parent="WIyWlLk6GJQsqaUBKTNV-1" vertex="1">
          <mxGeometry x="-310" y="-483" width="160" height="60" as="geometry">
            <mxRectangle x="550" y="140" width="160" height="26" as="alternateBounds" />
          </mxGeometry>
        </mxCell>
        <mxCell id="TrEjsEaidqLk8EyQajSw-16" value="DAE" style="text;align=left;verticalAlign=top;spacingLeft=4;spacingRight=4;overflow=hidden;rotatable=0;points=[[0,0.5],[1,0.5]];portConstraint=eastwest;rounded=0;shadow=0;html=0;" parent="TrEjsEaidqLk8EyQajSw-10" vertex="1">
          <mxGeometry y="26" width="160" height="26" as="geometry" />
        </mxCell>
        <mxCell id="TrEjsEaidqLk8EyQajSw-17" value="" style="line;html=1;strokeWidth=1;align=left;verticalAlign=middle;spacingTop=-1;spacingLeft=3;spacingRight=3;rotatable=0;labelPosition=right;points=[];portConstraint=eastwest;" parent="TrEjsEaidqLk8EyQajSw-10" vertex="1">
          <mxGeometry y="52" width="160" height="8" as="geometry" />
        </mxCell>
        <mxCell id="TrEjsEaidqLk8EyQajSw-37" value="" style="edgeStyle=orthogonalEdgeStyle;rounded=0;orthogonalLoop=1;jettySize=auto;html=1;entryX=1;entryY=0.5;entryDx=0;entryDy=0;endArrow=diamondThin;endFill=1;endSize=24;" parent="WIyWlLk6GJQsqaUBKTNV-1" source="TrEjsEaidqLk8EyQajSw-18" target="TrEjsEaidqLk8EyQajSw-16" edge="1">
          <mxGeometry relative="1" as="geometry" />
        </mxCell>
        <mxCell id="TrEjsEaidqLk8EyQajSw-18" value="DAE" style="swimlane;fontStyle=0;align=center;verticalAlign=top;childLayout=stackLayout;horizontal=1;startSize=26;horizontalStack=0;resizeParent=1;resizeLast=0;collapsible=1;marginBottom=0;rounded=0;shadow=0;strokeWidth=1;" parent="WIyWlLk6GJQsqaUBKTNV-1" vertex="1">
          <mxGeometry x="20" y="-500" width="160" height="112" as="geometry">
            <mxRectangle x="550" y="140" width="160" height="26" as="alternateBounds" />
          </mxGeometry>
        </mxCell>
        <mxCell id="Xn3YEF-nP8mEKB30sJzG-48" value="float force" style="text;align=left;verticalAlign=top;spacingLeft=4;spacingRight=4;overflow=hidden;rotatable=0;points=[[0,0.5],[1,0.5]];portConstraint=eastwest;" parent="TrEjsEaidqLk8EyQajSw-18" vertex="1">
          <mxGeometry y="26" width="160" height="26" as="geometry" />
        </mxCell>
        <mxCell id="Xn3YEF-nP8mEKB30sJzG-49" value="Direction* direction" style="text;align=left;verticalAlign=top;spacingLeft=4;spacingRight=4;overflow=hidden;rotatable=0;points=[[0,0.5],[1,0.5]];portConstraint=eastwest;" parent="TrEjsEaidqLk8EyQajSw-18" vertex="1">
          <mxGeometry y="52" width="160" height="26" as="geometry" />
        </mxCell>
        <mxCell id="TrEjsEaidqLk8EyQajSw-25" value="" style="line;html=1;strokeWidth=1;align=left;verticalAlign=middle;spacingTop=-1;spacingLeft=3;spacingRight=3;rotatable=0;labelPosition=right;points=[];portConstraint=eastwest;" parent="TrEjsEaidqLk8EyQajSw-18" vertex="1">
          <mxGeometry y="78" width="160" height="8" as="geometry" />
        </mxCell>
        <mxCell id="Xn3YEF-nP8mEKB30sJzG-50" value="use(float p_angle)" style="text;align=left;verticalAlign=top;spacingLeft=4;spacingRight=4;overflow=hidden;rotatable=0;points=[[0,0.5],[1,0.5]];portConstraint=eastwest;" parent="TrEjsEaidqLk8EyQajSw-18" vertex="1">
          <mxGeometry y="86" width="160" height="26" as="geometry" />
        </mxCell>
        <mxCell id="TrEjsEaidqLk8EyQajSw-46" value="" style="edgeStyle=orthogonalEdgeStyle;rounded=0;orthogonalLoop=1;jettySize=auto;html=1;exitX=0.5;exitY=0;exitDx=0;exitDy=0;endArrow=diamondThin;endFill=1;entryX=0.75;entryY=1;entryDx=0;entryDy=0;endSize=24;" parent="WIyWlLk6GJQsqaUBKTNV-1" source="qJN3Jl12TVzpHm3YRdqT-12" target="TrEjsEaidqLk8EyQajSw-26" edge="1">
          <mxGeometry relative="1" as="geometry">
            <mxPoint x="430" y="97" as="sourcePoint" />
            <mxPoint x="590" y="97" as="targetPoint" />
          </mxGeometry>
        </mxCell>
        <mxCell id="TrEjsEaidqLk8EyQajSw-26" value="Cockpit" style="swimlane;fontStyle=0;align=center;verticalAlign=top;childLayout=stackLayout;horizontal=1;startSize=26;horizontalStack=0;resizeParent=1;resizeLast=0;collapsible=1;marginBottom=0;rounded=0;shadow=0;strokeWidth=1;" parent="WIyWlLk6GJQsqaUBKTNV-1" vertex="1">
          <mxGeometry x="460" y="-293" width="160" height="140" as="geometry">
            <mxRectangle x="550" y="140" width="160" height="26" as="alternateBounds" />
          </mxGeometry>
        </mxCell>
        <mxCell id="TrEjsEaidqLk8EyQajSw-27" value="Pedal pedal" style="text;align=left;verticalAlign=top;spacingLeft=4;spacingRight=4;overflow=hidden;rotatable=0;points=[[0,0.5],[1,0.5]];portConstraint=eastwest;" parent="TrEjsEaidqLk8EyQajSw-26" vertex="1">
          <mxGeometry y="26" width="160" height="26" as="geometry" />
        </mxCell>
        <mxCell id="TrEjsEaidqLk8EyQajSw-28" value="SteerWheel steelWheel" style="text;align=left;verticalAlign=top;spacingLeft=4;spacingRight=4;overflow=hidden;rotatable=0;points=[[0,0.5],[1,0.5]];portConstraint=eastwest;rounded=0;shadow=0;html=0;" parent="TrEjsEaidqLk8EyQajSw-26" vertex="1">
          <mxGeometry y="52" width="160" height="26" as="geometry" />
        </mxCell>
        <mxCell id="TrEjsEaidqLk8EyQajSw-29" value="GearLever gearLever" style="text;align=left;verticalAlign=top;spacingLeft=4;spacingRight=4;overflow=hidden;rotatable=0;points=[[0,0.5],[1,0.5]];portConstraint=eastwest;rounded=0;shadow=0;html=0;" parent="TrEjsEaidqLk8EyQajSw-26" vertex="1">
          <mxGeometry y="78" width="160" height="26" as="geometry" />
        </mxCell>
        <mxCell id="TrEjsEaidqLk8EyQajSw-33" value="" style="line;html=1;strokeWidth=1;align=left;verticalAlign=middle;spacingTop=-1;spacingLeft=3;spacingRight=3;rotatable=0;labelPosition=right;points=[];portConstraint=eastwest;" parent="TrEjsEaidqLk8EyQajSw-26" vertex="1">
          <mxGeometry y="104" width="160" height="8" as="geometry" />
        </mxCell>
        <mxCell id="TrEjsEaidqLk8EyQajSw-35" value="manageAll (refazer)" style="text;align=left;verticalAlign=top;spacingLeft=4;spacingRight=4;overflow=hidden;rotatable=0;points=[[0,0.5],[1,0.5]];portConstraint=eastwest;rounded=0;shadow=0;html=0;" parent="TrEjsEaidqLk8EyQajSw-26" vertex="1">
          <mxGeometry y="112" width="160" height="26" as="geometry" />
        </mxCell>
        <mxCell id="TrEjsEaidqLk8EyQajSw-38" value="Injector" style="swimlane;fontStyle=0;align=center;verticalAlign=top;childLayout=stackLayout;horizontal=1;startSize=26;horizontalStack=0;resizeParent=1;resizeLast=0;collapsible=1;marginBottom=0;rounded=0;shadow=0;strokeWidth=1;" parent="WIyWlLk6GJQsqaUBKTNV-1" vertex="1">
          <mxGeometry x="-540" y="287" width="180" height="93" as="geometry">
            <mxRectangle x="340" y="380" width="170" height="26" as="alternateBounds" />
          </mxGeometry>
        </mxCell>
        <mxCell id="TrEjsEaidqLk8EyQajSw-39" value="ExplosionChamber * ec" style="text;align=left;verticalAlign=top;spacingLeft=4;spacingRight=4;overflow=hidden;rotatable=0;points=[[0,0.5],[1,0.5]];portConstraint=eastwest;" parent="TrEjsEaidqLk8EyQajSw-38" vertex="1">
          <mxGeometry y="26" width="180" height="26" as="geometry" />
        </mxCell>
        <mxCell id="TrEjsEaidqLk8EyQajSw-40" value="" style="line;html=1;strokeWidth=1;align=left;verticalAlign=middle;spacingTop=-1;spacingLeft=3;spacingRight=3;rotatable=0;labelPosition=right;points=[];portConstraint=eastwest;" parent="TrEjsEaidqLk8EyQajSw-38" vertex="1">
          <mxGeometry y="52" width="180" height="8" as="geometry" />
        </mxCell>
        <mxCell id="TrEjsEaidqLk8EyQajSw-41" value="execute(float p_pression)" style="text;align=left;verticalAlign=top;spacingLeft=4;spacingRight=4;overflow=hidden;rotatable=0;points=[[0,0.5],[1,0.5]];portConstraint=eastwest;" parent="TrEjsEaidqLk8EyQajSw-38" vertex="1">
          <mxGeometry y="60" width="180" height="26" as="geometry" />
        </mxCell>
        <mxCell id="TrEjsEaidqLk8EyQajSw-55" value="Brake" style="swimlane;fontStyle=0;align=center;verticalAlign=top;childLayout=stackLayout;horizontal=1;startSize=26;horizontalStack=0;resizeParent=1;resizeLast=0;collapsible=1;marginBottom=0;rounded=0;shadow=0;strokeWidth=1;" parent="WIyWlLk6GJQsqaUBKTNV-1" vertex="1">
          <mxGeometry x="140" y="175" width="180" height="112" as="geometry">
            <mxRectangle x="340" y="380" width="170" height="26" as="alternateBounds" />
          </mxGeometry>
        </mxCell>
        <mxCell id="TrEjsEaidqLk8EyQajSw-56" value="Wheel* wheel" style="text;align=left;verticalAlign=top;spacingLeft=4;spacingRight=4;overflow=hidden;rotatable=0;points=[[0,0.5],[1,0.5]];portConstraint=eastwest;" parent="TrEjsEaidqLk8EyQajSw-55" vertex="1">
          <mxGeometry y="26" width="180" height="26" as="geometry" />
        </mxCell>
        <mxCell id="TrEjsEaidqLk8EyQajSw-57" value="" style="line;html=1;strokeWidth=1;align=left;verticalAlign=middle;spacingTop=-1;spacingLeft=3;spacingRight=3;rotatable=0;labelPosition=right;points=[];portConstraint=eastwest;" parent="TrEjsEaidqLk8EyQajSw-55" vertex="1">
          <mxGeometry y="52" width="180" height="8" as="geometry" />
        </mxCell>
        <mxCell id="TrEjsEaidqLk8EyQajSw-59" value="execute(float p_force)" style="text;align=left;verticalAlign=top;spacingLeft=4;spacingRight=4;overflow=hidden;rotatable=0;points=[[0,0.5],[1,0.5]];portConstraint=eastwest;" parent="TrEjsEaidqLk8EyQajSw-55" vertex="1">
          <mxGeometry y="60" width="180" height="26" as="geometry" />
        </mxCell>
        <mxCell id="TrEjsEaidqLk8EyQajSw-58" value="attackWheel(Wheel* p_wheel)" style="text;align=left;verticalAlign=top;spacingLeft=4;spacingRight=4;overflow=hidden;rotatable=0;points=[[0,0.5],[1,0.5]];portConstraint=eastwest;" parent="TrEjsEaidqLk8EyQajSw-55" vertex="1">
          <mxGeometry y="86" width="180" height="26" as="geometry" />
        </mxCell>
        <mxCell id="TrEjsEaidqLk8EyQajSw-60" value="" style="edgeStyle=orthogonalEdgeStyle;rounded=0;orthogonalLoop=1;jettySize=auto;html=1;exitX=0.5;exitY=0;exitDx=0;exitDy=0;endArrow=diamondThin;endFill=1;entryX=0.25;entryY=1;entryDx=0;entryDy=0;endSize=24;" parent="WIyWlLk6GJQsqaUBKTNV-1" source="Xn3YEF-nP8mEKB30sJzG-18" target="TrEjsEaidqLk8EyQajSw-26" edge="1">
          <mxGeometry relative="1" as="geometry">
            <mxPoint x="610" y="717" as="sourcePoint" />
            <mxPoint x="610" y="567" as="targetPoint" />
          </mxGeometry>
        </mxCell>
        <mxCell id="TrEjsEaidqLk8EyQajSw-61" value="" style="edgeStyle=orthogonalEdgeStyle;rounded=0;orthogonalLoop=1;jettySize=auto;html=1;endArrow=diamondThin;endFill=1;entryX=0.5;entryY=1;entryDx=0;entryDy=0;endSize=24;" parent="WIyWlLk6GJQsqaUBKTNV-1" source="qJN3Jl12TVzpHm3YRdqT-33" target="qJN3Jl12TVzpHm3YRdqT-43" edge="1">
          <mxGeometry relative="1" as="geometry">
            <mxPoint x="-500" y="437" as="sourcePoint" />
            <mxPoint x="-500" y="287" as="targetPoint" />
          </mxGeometry>
        </mxCell>
        <mxCell id="TrEjsEaidqLk8EyQajSw-63" value="" style="edgeStyle=orthogonalEdgeStyle;rounded=0;orthogonalLoop=1;jettySize=auto;html=1;exitX=1;exitY=0.5;exitDx=0;exitDy=0;endArrow=diamondThin;endFill=1;entryX=0;entryY=0.5;entryDx=0;entryDy=0;endSize=24;" parent="WIyWlLk6GJQsqaUBKTNV-1" source="qJN3Jl12TVzpHm3YRdqT-48" target="TrEjsEaidqLk8EyQajSw-2" edge="1">
          <mxGeometry relative="1" as="geometry">
            <mxPoint x="-430" y="-283" as="sourcePoint" />
            <mxPoint x="-430" y="-433" as="targetPoint" />
          </mxGeometry>
        </mxCell>
        <mxCell id="Xn3YEF-nP8mEKB30sJzG-0" value="" style="edgeStyle=orthogonalEdgeStyle;rounded=0;orthogonalLoop=1;jettySize=auto;html=1;exitX=0.5;exitY=0;exitDx=0;exitDy=0;endArrow=diamondThin;endFill=1;entryX=0.5;entryY=1;entryDx=0;entryDy=0;endSize=24;" parent="WIyWlLk6GJQsqaUBKTNV-1" source="qJN3Jl12TVzpHm3YRdqT-22" target="TrEjsEaidqLk8EyQajSw-0" edge="1">
          <mxGeometry relative="1" as="geometry">
            <mxPoint x="-520" y="-128" as="sourcePoint" />
            <mxPoint x="-300" y="-218" as="targetPoint" />
            <Array as="points">
              <mxPoint x="-300" y="-13" />
              <mxPoint x="-230" y="-13" />
            </Array>
          </mxGeometry>
        </mxCell>
        <mxCell id="Xn3YEF-nP8mEKB30sJzG-4" value="" style="edgeStyle=orthogonalEdgeStyle;rounded=0;orthogonalLoop=1;jettySize=auto;html=1;endArrow=diamondThin;endFill=1;entryX=1;entryY=0.5;entryDx=0;entryDy=0;exitX=0;exitY=0.5;exitDx=0;exitDy=0;endSize=24;" parent="WIyWlLk6GJQsqaUBKTNV-1" source="qJN3Jl12TVzpHm3YRdqT-52" target="TrEjsEaidqLk8EyQajSw-4" edge="1">
          <mxGeometry relative="1" as="geometry">
            <mxPoint x="37" y="-203" as="sourcePoint" />
            <mxPoint x="-140" y="-234" as="targetPoint" />
          </mxGeometry>
        </mxCell>
        <mxCell id="Xn3YEF-nP8mEKB30sJzG-7" value="" style="endArrow=block;endSize=16;endFill=0;html=1;rounded=0;exitX=0.5;exitY=1;exitDx=0;exitDy=0;entryX=0.5;entryY=0;entryDx=0;entryDy=0;edgeStyle=orthogonalEdgeStyle;" parent="WIyWlLk6GJQsqaUBKTNV-1" source="qJN3Jl12TVzpHm3YRdqT-38" target="zkfFHV4jXpPFQw0GAbJ--0" edge="1">
          <mxGeometry width="160" relative="1" as="geometry">
            <mxPoint x="-90" y="506.54" as="sourcePoint" />
            <mxPoint x="70" y="414.54" as="targetPoint" />
          </mxGeometry>
        </mxCell>
        <mxCell id="Xn3YEF-nP8mEKB30sJzG-8" value="" style="endArrow=block;endSize=16;endFill=0;html=1;rounded=0;exitX=0.5;exitY=1;exitDx=0;exitDy=0;edgeStyle=orthogonalEdgeStyle;" parent="WIyWlLk6GJQsqaUBKTNV-1" source="TrEjsEaidqLk8EyQajSw-38" target="zkfFHV4jXpPFQw0GAbJ--0" edge="1">
          <mxGeometry width="160" relative="1" as="geometry">
            <mxPoint x="-120" y="240" as="sourcePoint" />
            <mxPoint x="20" y="347" as="targetPoint" />
          </mxGeometry>
        </mxCell>
        <mxCell id="Xn3YEF-nP8mEKB30sJzG-9" value="" style="edgeStyle=orthogonalEdgeStyle;rounded=0;orthogonalLoop=1;jettySize=auto;html=1;exitX=0;exitY=0.5;exitDx=0;exitDy=0;endArrow=diamondThin;endFill=1;entryX=0.992;entryY=0.683;entryDx=0;entryDy=0;entryPerimeter=0;endSize=24;" parent="WIyWlLk6GJQsqaUBKTNV-1" source="TrEjsEaidqLk8EyQajSw-28" target="TrEjsEaidqLk8EyQajSw-2" edge="1">
          <mxGeometry relative="1" as="geometry">
            <mxPoint x="620" y="227" as="sourcePoint" />
            <mxPoint x="330" y="-63" as="targetPoint" />
          </mxGeometry>
        </mxCell>
        <mxCell id="Xn3YEF-nP8mEKB30sJzG-16" value="" style="edgeStyle=orthogonalEdgeStyle;rounded=0;orthogonalLoop=1;jettySize=auto;html=1;endArrow=diamondThin;endFill=1;endSize=24;" parent="WIyWlLk6GJQsqaUBKTNV-1" source="Xn3YEF-nP8mEKB30sJzG-10" target="TrEjsEaidqLk8EyQajSw-29" edge="1">
          <mxGeometry relative="1" as="geometry" />
        </mxCell>
        <mxCell id="Xn3YEF-nP8mEKB30sJzG-10" value="SteerWheel" style="swimlane;fontStyle=0;align=center;verticalAlign=top;childLayout=stackLayout;horizontal=1;startSize=26;horizontalStack=0;resizeParent=1;resizeLast=0;collapsible=1;marginBottom=0;rounded=0;shadow=0;strokeWidth=1;" parent="WIyWlLk6GJQsqaUBKTNV-1" vertex="1">
          <mxGeometry x="730" y="-247" width="160" height="90" as="geometry">
            <mxRectangle x="550" y="140" width="160" height="26" as="alternateBounds" />
          </mxGeometry>
        </mxCell>
        <mxCell id="Xn3YEF-nP8mEKB30sJzG-11" value="DAE* dae" style="text;align=left;verticalAlign=top;spacingLeft=4;spacingRight=4;overflow=hidden;rotatable=0;points=[[0,0.5],[1,0.5]];portConstraint=eastwest;" parent="Xn3YEF-nP8mEKB30sJzG-10" vertex="1">
          <mxGeometry y="26" width="160" height="26" as="geometry" />
        </mxCell>
        <mxCell id="Xn3YEF-nP8mEKB30sJzG-14" value="" style="line;html=1;strokeWidth=1;align=left;verticalAlign=middle;spacingTop=-1;spacingLeft=3;spacingRight=3;rotatable=0;labelPosition=right;points=[];portConstraint=eastwest;" parent="Xn3YEF-nP8mEKB30sJzG-10" vertex="1">
          <mxGeometry y="52" width="160" height="8" as="geometry" />
        </mxCell>
        <mxCell id="Xn3YEF-nP8mEKB30sJzG-15" value="turn(float p_angle)" style="text;align=left;verticalAlign=top;spacingLeft=4;spacingRight=4;overflow=hidden;rotatable=0;points=[[0,0.5],[1,0.5]];portConstraint=eastwest;rounded=0;shadow=0;html=0;" parent="Xn3YEF-nP8mEKB30sJzG-10" vertex="1">
          <mxGeometry y="60" width="160" height="26" as="geometry" />
        </mxCell>
        <mxCell id="Xn3YEF-nP8mEKB30sJzG-17" value="" style="edgeStyle=orthogonalEdgeStyle;rounded=0;orthogonalLoop=1;jettySize=auto;html=1;endArrow=diamondThin;endFill=1;exitX=0.5;exitY=0;exitDx=0;exitDy=0;entryX=0.688;entryY=0.993;entryDx=0;entryDy=0;entryPerimeter=0;endSize=24;" parent="WIyWlLk6GJQsqaUBKTNV-1" source="zkfFHV4jXpPFQw0GAbJ--13" target="qJN3Jl12TVzpHm3YRdqT-21" edge="1">
          <mxGeometry relative="1" as="geometry">
            <mxPoint x="640" y="-88" as="sourcePoint" />
            <mxPoint x="540" y="-88" as="targetPoint" />
          </mxGeometry>
        </mxCell>
        <mxCell id="Xn3YEF-nP8mEKB30sJzG-18" value="Pedal" style="swimlane;fontStyle=0;align=center;verticalAlign=top;childLayout=stackLayout;horizontal=1;startSize=26;horizontalStack=0;resizeParent=1;resizeLast=0;collapsible=1;marginBottom=0;rounded=0;shadow=0;strokeWidth=1;" parent="WIyWlLk6GJQsqaUBKTNV-1" vertex="1">
          <mxGeometry x="350" y="71" width="180" height="120" as="geometry">
            <mxRectangle x="340" y="380" width="170" height="26" as="alternateBounds" />
          </mxGeometry>
        </mxCell>
        <mxCell id="Xn3YEF-nP8mEKB30sJzG-19" value="LinkablePart linkablePart" style="text;align=left;verticalAlign=top;spacingLeft=4;spacingRight=4;overflow=hidden;rotatable=0;points=[[0,0.5],[1,0.5]];portConstraint=eastwest;" parent="Xn3YEF-nP8mEKB30sJzG-18" vertex="1">
          <mxGeometry y="26" width="180" height="26" as="geometry" />
        </mxCell>
        <mxCell id="Xn3YEF-nP8mEKB30sJzG-21" value="" style="line;html=1;strokeWidth=1;align=left;verticalAlign=middle;spacingTop=-1;spacingLeft=3;spacingRight=3;rotatable=0;labelPosition=right;points=[];portConstraint=eastwest;" parent="Xn3YEF-nP8mEKB30sJzG-18" vertex="1">
          <mxGeometry y="52" width="180" height="8" as="geometry" />
        </mxCell>
        <mxCell id="Xn3YEF-nP8mEKB30sJzG-22" value="setTarget(LinkablePart* p_part)" style="text;align=left;verticalAlign=top;spacingLeft=4;spacingRight=4;overflow=hidden;rotatable=0;points=[[0,0.5],[1,0.5]];portConstraint=eastwest;" parent="Xn3YEF-nP8mEKB30sJzG-18" vertex="1">
          <mxGeometry y="60" width="180" height="26" as="geometry" />
        </mxCell>
        <mxCell id="Xn3YEF-nP8mEKB30sJzG-23" value="use(float p_pression)" style="text;align=left;verticalAlign=top;spacingLeft=4;spacingRight=4;overflow=hidden;rotatable=0;points=[[0,0.5],[1,0.5]];portConstraint=eastwest;" parent="Xn3YEF-nP8mEKB30sJzG-18" vertex="1">
          <mxGeometry y="86" width="180" height="26" as="geometry" />
        </mxCell>
        <mxCell id="Xn3YEF-nP8mEKB30sJzG-34" value="" style="edgeStyle=orthogonalEdgeStyle;rounded=0;orthogonalLoop=1;jettySize=auto;html=1;endArrow=diamondThin;endFill=1;exitX=0.5;exitY=0;exitDx=0;exitDy=0;entryX=0.5;entryY=1;entryDx=0;entryDy=0;endSize=24;" parent="WIyWlLk6GJQsqaUBKTNV-1" source="zkfFHV4jXpPFQw0GAbJ--6" target="qJN3Jl12TVzpHm3YRdqT-51" edge="1">
          <mxGeometry relative="1" as="geometry">
            <mxPoint x="10" y="828" as="sourcePoint" />
            <mxPoint x="100" y="-6" as="targetPoint" />
          </mxGeometry>
        </mxCell>
        <mxCell id="Xn3YEF-nP8mEKB30sJzG-37" value="" style="edgeStyle=orthogonalEdgeStyle;rounded=0;orthogonalLoop=1;jettySize=auto;html=1;endArrow=diamondThin;endFill=1;exitX=0.5;exitY=0;exitDx=0;exitDy=0;entryX=0.25;entryY=1;entryDx=0;entryDy=0;endSize=24;" parent="WIyWlLk6GJQsqaUBKTNV-1" source="qJN3Jl12TVzpHm3YRdqT-29" target="qJN3Jl12TVzpHm3YRdqT-43" edge="1">
          <mxGeometry relative="1" as="geometry">
            <mxPoint x="-840" y="108" as="sourcePoint" />
            <mxPoint x="-580" y="17" as="targetPoint" />
          </mxGeometry>
        </mxCell>
        <mxCell id="Xn3YEF-nP8mEKB30sJzG-39" value="" style="edgeStyle=orthogonalEdgeStyle;rounded=0;orthogonalLoop=1;jettySize=auto;html=1;endArrow=diamondThin;endFill=0;entryX=1;entryY=0.5;entryDx=0;entryDy=0;exitX=0;exitY=0.5;exitDx=0;exitDy=0;endSize=24;" parent="WIyWlLk6GJQsqaUBKTNV-1" source="qJN3Jl12TVzpHm3YRdqT-34" target="qJN3Jl12TVzpHm3YRdqT-30" edge="1">
          <mxGeometry relative="1" as="geometry">
            <mxPoint x="-840" y="108" as="sourcePoint" />
            <mxPoint x="-640" y="-13" as="targetPoint" />
          </mxGeometry>
        </mxCell>
        <mxCell id="Xn3YEF-nP8mEKB30sJzG-40" value="" style="edgeStyle=orthogonalEdgeStyle;rounded=0;orthogonalLoop=1;jettySize=auto;html=1;exitX=0;exitY=0.5;exitDx=0;exitDy=0;endArrow=diamondThin;endFill=0;entryX=1;entryY=0.5;entryDx=0;entryDy=0;endSize=24;" parent="WIyWlLk6GJQsqaUBKTNV-1" source="qJN3Jl12TVzpHm3YRdqT-23" target="qJN3Jl12TVzpHm3YRdqT-34" edge="1">
          <mxGeometry relative="1" as="geometry">
            <mxPoint x="-480" y="54" as="sourcePoint" />
            <mxPoint x="-220" y="-83" as="targetPoint" />
          </mxGeometry>
        </mxCell>
        <mxCell id="Xn3YEF-nP8mEKB30sJzG-41" value="" style="edgeStyle=orthogonalEdgeStyle;rounded=0;orthogonalLoop=1;jettySize=auto;html=1;exitX=-0.017;exitY=0.889;exitDx=0;exitDy=0;endArrow=diamondThin;endFill=0;entryX=0.5;entryY=1;entryDx=0;entryDy=0;exitPerimeter=0;endSize=24;" parent="WIyWlLk6GJQsqaUBKTNV-1" source="TrEjsEaidqLk8EyQajSw-39" target="qJN3Jl12TVzpHm3YRdqT-29" edge="1">
          <mxGeometry relative="1" as="geometry">
            <mxPoint x="-490" y="80" as="sourcePoint" />
            <mxPoint x="-580" y="164" as="targetPoint" />
          </mxGeometry>
        </mxCell>
        <mxCell id="Xn3YEF-nP8mEKB30sJzG-43" value="" style="edgeStyle=orthogonalEdgeStyle;rounded=0;orthogonalLoop=1;jettySize=auto;html=1;endArrow=diamondThin;endFill=1;entryX=1;entryY=0.5;entryDx=0;entryDy=0;exitX=0.5;exitY=0;exitDx=0;exitDy=0;endSize=24;" parent="WIyWlLk6GJQsqaUBKTNV-1" source="TrEjsEaidqLk8EyQajSw-38" target="qJN3Jl12TVzpHm3YRdqT-46" edge="1">
          <mxGeometry relative="1" as="geometry">
            <mxPoint x="-670" y="125" as="sourcePoint" />
            <mxPoint x="-750" y="-103" as="targetPoint" />
          </mxGeometry>
        </mxCell>
        <mxCell id="Xn3YEF-nP8mEKB30sJzG-44" value="" style="edgeStyle=orthogonalEdgeStyle;rounded=0;orthogonalLoop=1;jettySize=auto;html=1;endArrow=diamondThin;endFill=0;exitX=0;exitY=0.5;exitDx=0;exitDy=0;entryX=1;entryY=0.5;entryDx=0;entryDy=0;endSize=24;" parent="WIyWlLk6GJQsqaUBKTNV-1" source="zkfFHV4jXpPFQw0GAbJ--10" target="qJN3Jl12TVzpHm3YRdqT-23" edge="1">
          <mxGeometry relative="1" as="geometry">
            <mxPoint x="50" y="41" as="sourcePoint" />
            <mxPoint x="50" y="-30" as="targetPoint" />
          </mxGeometry>
        </mxCell>
        <mxCell id="Xn3YEF-nP8mEKB30sJzG-45" value="" style="edgeStyle=orthogonalEdgeStyle;rounded=0;orthogonalLoop=1;jettySize=auto;html=1;endArrow=diamondThin;endFill=0;exitX=1;exitY=0.5;exitDx=0;exitDy=0;entryX=0.75;entryY=0;entryDx=0;entryDy=0;endSize=24;" parent="WIyWlLk6GJQsqaUBKTNV-1" source="zkfFHV4jXpPFQw0GAbJ--10" target="TrEjsEaidqLk8EyQajSw-55" edge="1">
          <mxGeometry relative="1" as="geometry">
            <mxPoint x="50" y="41" as="sourcePoint" />
            <mxPoint x="50" y="-30" as="targetPoint" />
          </mxGeometry>
        </mxCell>
        <mxCell id="Xn3YEF-nP8mEKB30sJzG-46" value="" style="edgeStyle=orthogonalEdgeStyle;rounded=0;orthogonalLoop=1;jettySize=auto;html=1;entryX=0.5;entryY=0;entryDx=0;entryDy=0;endArrow=diamondThin;endFill=0;endSize=24;" parent="WIyWlLk6GJQsqaUBKTNV-1" source="TrEjsEaidqLk8EyQajSw-18" target="Xn3YEF-nP8mEKB30sJzG-10" edge="1">
          <mxGeometry relative="1" as="geometry">
            <mxPoint x="700" y="-383.53" as="sourcePoint" />
            <mxPoint x="610" y="-384.53" as="targetPoint" />
          </mxGeometry>
        </mxCell>
        <mxCell id="Xn3YEF-nP8mEKB30sJzG-47" value="" style="edgeStyle=orthogonalEdgeStyle;rounded=0;orthogonalLoop=1;jettySize=auto;html=1;endArrow=diamondThin;endFill=0;exitX=0.5;exitY=0;exitDx=0;exitDy=0;entryX=0.563;entryY=1.005;entryDx=0;entryDy=0;entryPerimeter=0;endSize=24;" parent="WIyWlLk6GJQsqaUBKTNV-1" source="qJN3Jl12TVzpHm3YRdqT-51" target="Xn3YEF-nP8mEKB30sJzG-50" edge="1">
          <mxGeometry relative="1" as="geometry">
            <mxPoint x="210" y="-93" as="sourcePoint" />
            <mxPoint x="210" y="-164" as="targetPoint" />
          </mxGeometry>
        </mxCell>
        <mxCell id="Xn3YEF-nP8mEKB30sJzG-52" value="" style="edgeStyle=orthogonalEdgeStyle;rounded=0;orthogonalLoop=1;jettySize=auto;html=1;endArrow=diamondThin;endFill=1;exitX=0.5;exitY=0;exitDx=0;exitDy=0;entryX=0.75;entryY=1;entryDx=0;entryDy=0;endSize=24;" parent="WIyWlLk6GJQsqaUBKTNV-1" source="qJN3Jl12TVzpHm3YRdqT-38" target="TrEjsEaidqLk8EyQajSw-0" edge="1">
          <mxGeometry relative="1" as="geometry">
            <mxPoint x="-30" y="97" as="sourcePoint" />
            <mxPoint x="-220" y="96" as="targetPoint" />
            <Array as="points">
              <mxPoint x="-120" y="-13" />
              <mxPoint x="-202" y="-13" />
              <mxPoint x="-202" y="-93" />
            </Array>
          </mxGeometry>
        </mxCell>
        <mxCell id="Xn3YEF-nP8mEKB30sJzG-53" value="" style="edgeStyle=orthogonalEdgeStyle;rounded=0;orthogonalLoop=1;jettySize=auto;html=1;endArrow=diamondThin;endFill=1;exitX=0;exitY=0.5;exitDx=0;exitDy=0;entryX=1.003;entryY=0.939;entryDx=0;entryDy=0;entryPerimeter=0;endSize=24;" parent="WIyWlLk6GJQsqaUBKTNV-1" source="TrEjsEaidqLk8EyQajSw-56" target="qJN3Jl12TVzpHm3YRdqT-39" edge="1">
          <mxGeometry relative="1" as="geometry">
            <mxPoint x="270" y="348" as="sourcePoint" />
            <mxPoint x="80" y="347" as="targetPoint" />
          </mxGeometry>
        </mxCell>
      </root>
    </mxGraphModel>
  </diagram>
</mxfile>
